<svg width="203" height="206" viewBox="0 0 203 206" fill="none" xmlns="http://www.w3.org/2000/svg">
<path d="M14.9119 147.384C14.6172 147.601 14.2345 147.597 13.9437 147.432C13.8306 147.367 13.7267 147.287 13.6573 147.183C12.5964 145.703 11.5862 144.208 10.6267 142.7C10.3584 142.269 10.4796 141.718 10.9103 141.45C11.3409 141.182 11.8922 141.303 12.1604 141.734C13.0806 143.198 14.0747 144.683 15.1125 146.129C15.3991 146.528 15.3102 147.097 14.9119 147.384ZM81.6626 23.6872C82.1303 23.5042 82.3506 22.9666 82.1585 22.5151C81.9755 22.0474 81.4379 21.827 80.9864 22.0192C79.3022 22.6863 77.6504 23.3717 76.0309 24.0755C75.5794 24.2677 75.359 24.8053 75.5512 25.2568C75.6323 25.4526 75.7662 25.593 75.9278 25.6849C76.1701 25.8228 76.4607 25.8385 76.7325 25.7365C78.3428 25.0488 79.9946 24.3634 81.6534 23.7033L81.6626 23.6872ZM9.50075 137.162C8.661 135.593 7.88113 133.995 7.17509 132.417C6.96676 131.956 6.43614 131.761 5.98461 131.953C5.52388 132.162 5.32887 132.692 5.52105 133.144C6.24102 134.772 7.044 136.406 7.90687 138.009C7.99014 138.163 8.11717 138.278 8.26256 138.361C8.52105 138.508 8.85306 138.526 9.13636 138.366C9.57396 138.123 9.75281 137.583 9.50994 137.146L9.50075 137.162ZM62.6328 31.2723C62.4153 30.8277 61.8501 30.6558 61.4217 30.8825C59.7955 31.7109 58.2108 32.5414 56.6585 33.3904C56.2209 33.6332 56.0581 34.1823 56.301 34.6199C56.3843 34.7742 56.5113 34.8892 56.6567 34.972C56.9152 35.119 57.2472 35.1369 57.5305 34.9773C59.0737 34.1445 60.6422 33.3048 62.2431 32.4834C62.6876 32.2659 62.8757 31.7099 62.6328 31.2723ZM3.69647 122.482C3.56419 122 3.07256 121.699 2.58176 121.847C2.10015 121.98 1.79902 122.471 1.94746 122.962C2.39557 124.693 2.92667 126.428 3.53383 128.142C3.60569 128.354 3.76279 128.529 3.9405 128.63C4.16667 128.759 4.43185 128.781 4.69451 128.696C5.16917 128.538 5.40568 128.01 5.24804 127.535C4.65481 125.871 4.14681 124.171 3.71263 122.491L3.69647 122.482ZM101.206 14.7478C99.4782 15.3043 97.7916 15.863 96.105 16.4217C95.6303 16.5793 95.3777 17.0985 95.5353 17.5731C95.6072 17.7851 95.7643 17.96 95.942 18.0612C96.152 18.1807 96.4333 18.2124 96.6706 18.1336C98.3411 17.5657 100.028 17.007 101.731 16.4576C102.205 16.2999 102.474 15.7899 102.316 15.3153C102.159 14.8406 101.649 14.5718 101.174 14.7294L101.206 14.7478ZM29.3729 161.772C28.0381 160.585 26.7471 159.358 25.4976 158.134C25.1511 157.766 24.5586 157.792 24.2157 158.132C23.8636 158.487 23.8739 159.07 24.2388 159.406C25.4953 160.656 26.8278 161.885 28.1695 163.097C28.2179 163.125 28.2734 163.178 28.3218 163.205C28.6772 163.408 29.1636 163.342 29.4466 163.033C29.7825 162.668 29.7469 162.092 29.382 161.756L29.3729 161.772ZM92.1921 18.7504C92.0253 18.2919 91.5061 18.0393 91.0315 18.1969C89.3334 18.8132 87.6515 19.4388 85.995 20.0574C85.5273 20.2403 85.3 20.7526 85.4576 21.2272C85.5387 21.423 85.6796 21.5888 85.8573 21.6899C86.0835 21.8186 86.3648 21.8504 86.6367 21.7484C88.2771 21.1207 89.9498 20.5113 91.6478 19.8949C92.1063 19.7281 92.359 19.2089 92.2013 18.7343L92.1921 18.7504ZM122.919 9.43799C122.787 8.95638 122.295 8.65525 121.814 8.78754C120.058 9.24261 118.343 9.69991 116.629 10.1572C116.147 10.2895 115.862 10.7903 115.995 11.2719C116.048 11.5162 116.221 11.7003 116.415 11.8106C116.609 11.921 116.865 11.9597 117.093 11.897C118.791 11.4305 120.506 10.9732 122.253 10.5343C122.734 10.402 123.035 9.91041 122.903 9.4288L122.919 9.43799ZM21.8226 154.332C20.6121 153.001 19.4523 151.657 18.3502 150.324C18.0382 149.933 17.4663 149.885 17.075 150.197C16.6836 150.509 16.6362 151.081 16.9482 151.473C18.0573 152.831 19.2402 154.21 20.483 155.558C20.5454 155.637 20.6262 155.683 20.707 155.729C21.0462 155.922 21.4727 155.886 21.7627 155.602C22.1309 155.256 22.153 154.691 21.8226 154.332ZM106.86 14.8851C108.544 14.3679 110.245 13.8599 111.978 13.3703C112.459 13.238 112.728 12.728 112.612 12.2556C112.48 11.774 111.97 11.5052 111.497 11.6213C109.755 12.1271 108.038 12.6259 106.354 13.143C105.879 13.3007 105.604 13.7853 105.752 14.2762C105.815 14.5043 105.972 14.6792 106.166 14.7895C106.376 14.909 106.632 14.9478 106.869 14.8689L106.86 14.8851ZM9.26493 77.1037C9.70112 77.3519 10.2334 77.2056 10.4978 76.7787C11.3619 75.2601 12.316 73.7713 13.3024 72.3009C13.5829 71.8831 13.4712 71.3276 13.0534 71.0471C12.6426 70.7919 12.0802 70.8783 11.7997 71.2961C10.7787 72.7896 9.81324 74.336 8.91457 75.8778C8.66637 76.314 8.80339 76.8624 9.23958 77.1106L9.26493 77.1037ZM5.9086 86.2719C6.52816 84.6569 7.23992 83.0302 8.0163 81.4403C8.23219 80.9857 8.04448 80.4512 7.5899 80.2353C7.13532 80.0194 6.60078 80.2071 6.38489 80.6617C5.59012 82.2839 4.86694 83.9682 4.2198 85.6317C4.0638 86.0562 4.22144 86.5308 4.60916 86.7515C4.64147 86.7699 4.68994 86.7974 4.72225 86.8158C5.19522 86.9994 5.71583 86.761 5.89022 86.3042L5.9086 86.2719ZM15.1555 68.1799C15.1555 68.1799 15.2362 68.2258 15.2685 68.2442C15.6563 68.4648 16.161 68.3671 16.4301 68.0069C17.4859 66.6401 18.6176 65.2525 19.7887 63.9085C20.1085 63.5345 20.0729 62.9582 19.6988 62.6384C19.3247 62.3186 18.7484 62.3542 18.4286 62.7283C17.2392 64.1045 16.082 65.4991 15.0079 66.8982C14.6951 67.2977 14.7814 67.8601 15.1647 68.1637L15.1555 68.1799ZM22.0941 60.0449C22.0941 60.0449 22.205 60.1508 22.2696 60.1875C22.625 60.3898 23.0699 60.3221 23.3598 60.038C24.5588 58.7955 25.8499 57.5412 27.1549 56.3377C27.5232 55.9912 27.5452 55.4263 27.1987 55.058C26.8522 54.6898 26.2873 54.6678 25.9191 55.0143C24.5956 56.2501 23.2953 57.5205 22.0619 58.7862C21.7098 59.1419 21.7201 59.7251 22.0849 60.0611L22.0941 60.0449ZM66.1927 30.09C66.435 30.2279 66.7579 30.2619 67.0319 30.1185C68.6122 29.3709 70.2177 28.6164 71.8648 27.8641C72.3255 27.6558 72.5206 27.1252 72.3122 26.6644C72.1039 26.2037 71.5733 26.0087 71.1125 26.217C69.4493 26.9601 67.8437 27.7146 66.2451 28.4945C65.8006 28.712 65.6055 29.2426 65.8139 29.7034C65.888 29.8738 66.0219 30.0142 66.1835 30.1062L66.1927 30.09ZM1.96465 112.108C1.92456 111.614 1.49506 111.242 0.985601 111.273C0.492288 111.313 0.11958 111.742 0.150482 112.252C0.287447 114.04 0.514371 115.859 0.810388 117.632C0.861628 117.917 1.03265 118.143 1.25883 118.272C1.43653 118.373 1.65102 118.409 1.86076 118.379C2.3563 118.297 2.68974 117.824 2.59895 117.345C2.3007 115.614 2.08769 113.846 1.95546 112.124L1.96465 112.108ZM38.2465 46.0534C38.3321 46.1662 38.4198 46.2375 38.5329 46.3019C38.8398 46.4765 39.2156 46.4551 39.5011 46.254C40.9125 45.2393 42.3655 44.2269 43.8599 43.2166C44.2744 42.9392 44.3795 42.3788 44.102 41.9643C43.8246 41.5498 43.2642 41.4448 42.8497 41.7222C41.3299 42.7394 39.8516 43.7588 38.431 44.7896C38.0327 45.0763 37.9438 45.6459 38.2304 46.0442L38.2465 46.0534ZM4.21622 91.2756C4.3583 90.8004 4.09454 90.2868 3.61014 90.1608C3.13495 90.0188 2.63745 90.2917 2.49538 90.7669C1.97748 92.5039 1.54037 94.2869 1.18849 96.0328C1.11772 96.4202 1.30516 96.8049 1.62827 96.9888C1.70904 97.0347 1.78983 97.0807 1.88899 97.0943C2.36641 97.1949 2.84998 96.8713 2.95056 96.3938C3.30021 94.6894 3.7259 92.9641 4.21622 91.2756ZM35.41 48.1819C35.0981 47.7906 34.5354 47.727 34.1532 48.0228C32.7189 49.1528 31.3261 50.2851 29.9749 51.4195C29.5996 51.7407 29.5523 52.3125 29.8734 52.6877C29.9358 52.766 30.0236 52.8373 30.1205 52.8925C30.4436 53.0763 30.8609 53.0571 31.1578 52.7984C32.4837 51.6709 33.8512 50.5456 35.2763 49.4318C35.6676 49.1198 35.7312 48.5572 35.4354 48.175L35.41 48.1819ZM2.13001 101.594C2.18212 101.089 1.83089 100.654 1.32589 100.602C0.82089 100.55 0.385781 100.901 0.333671 101.406C0.145575 103.203 0.0312913 105.019 1.20966e-05 106.841C-0.00167742 107.182 0.174075 107.475 0.464871 107.64C0.594113 107.714 0.741746 107.755 0.891607 107.755C1.39884 107.765 1.79467 107.37 1.80527 106.863C1.84128 105.108 1.94414 103.349 2.12082 101.61L2.13001 101.594ZM53.2355 36.3615C52.9927 35.9239 52.4345 35.7773 51.9877 36.0364C50.4147 36.9591 48.8832 37.8841 47.3771 38.8021C46.9464 39.0703 46.8252 39.6216 47.0934 40.0522C47.1697 40.1812 47.2806 40.287 47.4099 40.3606C47.6845 40.5169 48.0419 40.5277 48.3343 40.352C49.8243 39.4248 51.3466 38.5159 52.8943 37.6002C53.3319 37.3573 53.4784 36.7991 53.2102 36.3684L53.2355 36.3615ZM158.523 203.567C156.734 203.554 154.963 203.509 153.192 203.464C152.685 203.453 152.273 203.839 152.263 204.346C152.261 204.687 152.444 205.005 152.718 205.161C152.848 205.235 152.995 205.276 153.145 205.276C154.916 205.321 156.712 205.359 158.517 205.381C159.008 205.383 159.429 204.981 159.431 204.49C159.432 203.999 159.03 203.578 158.539 203.576L158.523 203.567ZM137.209 202.538C135.42 202.375 133.656 202.206 131.901 202.02C131.396 201.968 130.961 202.319 130.908 202.824C130.872 203.188 131.062 203.531 131.369 203.706C131.466 203.761 131.588 203.809 131.713 203.816C133.484 204.011 135.273 204.174 137.062 204.337C137.551 204.38 137.995 204.012 138.038 203.523C138.081 203.035 137.714 202.59 137.225 202.547L137.209 202.538ZM147.859 203.252C146.066 203.172 144.29 203.06 142.54 202.941C142.042 202.914 141.614 203.291 141.571 203.78C141.544 204.128 141.743 204.455 142.034 204.62C142.147 204.685 142.278 204.717 142.419 204.733C144.194 204.845 145.97 204.957 147.78 205.046C148.278 205.073 148.69 204.687 148.716 204.189C148.743 203.691 148.367 203.263 147.859 203.252ZM105.589 197.784C103.837 197.407 102.102 196.997 100.393 196.581C99.9085 196.455 99.418 196.753 99.3082 197.247C99.2121 197.641 99.4065 198.051 99.7457 198.244C99.8104 198.281 99.8912 198.327 99.9742 198.331C101.699 198.757 103.443 199.15 105.212 199.537C105.706 199.647 106.18 199.339 106.29 198.845C106.4 198.352 106.092 197.878 105.599 197.768L105.589 197.784ZM126.606 201.402C124.828 201.182 123.069 200.929 121.318 200.66C120.822 200.592 120.355 200.925 120.287 201.421C120.225 201.792 120.422 202.161 120.729 202.335C120.826 202.39 120.932 202.429 121.047 202.452C122.798 202.721 124.582 202.967 126.36 203.187C126.856 203.256 127.317 202.897 127.36 202.408C127.428 201.913 127.07 201.452 126.581 201.409L126.606 201.402ZM116.06 199.828C114.287 199.525 112.548 199.198 110.809 198.872C110.322 198.787 109.848 199.095 109.738 199.589C109.667 199.976 109.855 200.361 110.178 200.545C110.259 200.591 110.339 200.636 110.464 200.643C112.219 200.979 113.974 201.315 115.748 201.618C116.234 201.702 116.702 201.37 116.786 200.883C116.87 200.396 116.538 199.929 116.051 199.845L116.06 199.828ZM169.2 203.483C167.399 203.528 165.633 203.549 163.867 203.571C163.376 203.57 162.971 203.981 162.97 204.472C162.968 204.813 163.153 205.089 163.428 205.246C163.557 205.319 163.721 205.37 163.88 205.353C165.662 205.341 167.453 205.312 169.254 205.267C169.754 205.253 170.143 204.832 170.144 204.341C170.129 203.841 169.709 203.452 169.218 203.451L169.2 203.483ZM190.505 202.197C188.723 202.359 186.95 202.506 185.178 202.652C184.684 202.692 184.312 203.121 184.343 203.631C184.359 203.94 184.553 204.2 184.796 204.338C184.941 204.42 185.13 204.464 185.305 204.457C187.078 204.31 188.867 204.174 190.658 203.995C191.151 203.955 191.517 203.5 191.477 203.007C191.437 202.514 190.982 202.148 190.489 202.188L190.505 202.197ZM202.122 201.814C202.056 201.328 201.601 200.962 201.115 201.027C199.338 201.257 197.579 201.453 195.82 201.65C195.318 201.706 194.961 202.145 195.018 202.648C195.06 202.95 195.222 203.191 195.464 203.329C195.625 203.421 195.815 203.465 196.015 203.45C197.774 203.254 199.558 203.05 201.335 202.821C201.821 202.755 202.187 202.3 202.122 201.814ZM179.855 203.023C178.059 203.135 176.298 203.223 174.52 203.303C174.02 203.317 173.631 203.738 173.662 204.247C173.67 204.572 173.855 204.849 174.113 204.996C174.259 205.078 174.422 205.129 174.598 205.122C176.375 205.042 178.162 204.947 179.957 204.835C180.467 204.804 180.84 204.375 180.799 203.882C180.759 203.388 180.339 202.999 179.846 203.039L179.855 203.023ZM46.3945 174.516C44.8804 173.569 43.4008 172.598 41.9396 171.596C41.524 171.274 40.9664 171.427 40.695 171.829C40.4145 172.246 40.5262 172.802 40.9279 173.073C42.3891 174.076 43.901 175.064 45.4313 176.021L45.4636 176.039C45.8836 176.278 46.4067 176.148 46.6781 175.746C46.9424 175.319 46.8146 174.755 46.4037 174.5L46.3945 174.516ZM153.581 3.66004C154.077 3.57845 154.394 3.09602 154.313 2.60049C154.222 2.1211 153.749 1.78766 153.253 1.86926C151.478 2.20677 149.729 2.53734 147.996 2.87709C147.507 2.98403 147.183 3.44111 147.281 3.94584C147.341 4.21548 147.496 4.43191 147.722 4.56061C147.9 4.66172 148.131 4.70742 148.35 4.66091C150.083 4.32116 151.832 3.99061 153.607 3.65308L153.581 3.66004ZM142.728 3.94257C140.96 4.30544 139.208 4.67751 137.489 5.06796C137.001 5.17489 136.683 5.65732 136.79 6.1459C136.851 6.41553 137.015 6.61581 137.225 6.73532C137.419 6.84563 137.633 6.88213 137.868 6.84482C139.587 6.45437 141.33 6.09846 143.097 5.73559C143.586 5.62866 143.894 5.16238 143.796 4.65765C143.689 4.16907 143.207 3.85179 142.718 3.95873L142.728 3.94257ZM95.2284 195.246C93.5053 194.779 91.7915 194.295 90.1029 193.805C89.6277 193.663 89.1303 193.936 88.9882 194.411C88.8667 194.813 89.0427 195.255 89.3982 195.457C89.4628 195.494 89.5112 195.521 89.5851 195.542C91.2897 196.042 93.0198 196.534 94.759 197.011C95.2434 197.136 95.7409 196.863 95.8668 196.379C95.9927 195.895 95.7036 195.388 95.2354 195.271L95.2284 195.246ZM55.5986 179.839C54.3847 179.191 53.1962 178.536 52.033 177.874L50.9506 177.258C50.5835 176.964 49.966 177.147 49.7178 177.583C49.4696 178.019 49.6066 178.568 50.0428 178.816L51.1413 179.441C52.3207 180.112 53.5161 180.792 54.7554 181.433C55.1916 181.681 55.7423 181.503 55.9743 181.058C56.2225 180.621 56.0509 180.096 55.5986 179.839ZM37.6273 168.5C36.1867 167.424 34.7968 166.334 33.4322 165.237C33.049 164.933 32.4727 164.969 32.1598 165.368C31.8308 165.758 31.8918 166.328 32.2912 166.64C33.6628 167.763 35.085 168.872 36.5417 169.957C36.574 169.976 36.6063 169.994 36.6387 170.012C37.0264 170.233 37.5311 170.135 37.8094 169.759C38.1061 169.35 38.0197 168.788 37.6273 168.5ZM132.265 6.24403C130.511 6.65759 128.757 7.07115 127.045 7.48695C126.563 7.61924 126.271 8.0947 126.378 8.58328C126.448 8.83676 126.596 9.02785 126.806 9.14736C127 9.25767 127.23 9.30336 127.458 9.2407C129.171 8.8249 130.908 8.40215 132.653 8.00474C133.141 7.8978 133.443 7.40617 133.336 6.91759C133.229 6.42902 132.737 6.12789 132.249 6.23483L132.265 6.24403ZM74.9786 188.664C73.3152 188.016 71.6609 187.353 70.032 186.683C69.5683 186.483 69.0407 186.696 68.8571 187.169C68.6758 187.601 68.8495 188.084 69.2373 188.305C69.2696 188.323 69.3019 188.342 69.3342 188.36C70.9701 189.056 72.6243 189.719 74.3293 190.369C74.8022 190.552 75.3229 190.314 75.4972 189.857C75.6808 189.384 75.4586 188.872 74.9856 188.689L74.9786 188.664ZM85.0187 192.217C83.3254 191.659 81.6322 191.102 79.9665 190.497C79.5005 190.338 78.9799 190.577 78.8217 191.043C78.6656 191.467 78.8578 191.919 79.2294 192.13C79.2778 192.158 79.3263 192.185 79.3748 192.213C81.0497 192.802 82.7499 193.385 84.4685 193.935C84.9345 194.093 85.4481 193.83 85.6156 193.347C85.7738 192.881 85.5101 192.368 85.0441 192.21L85.0187 192.217ZM164.859 0.753071C164.778 0.257534 164.304 -0.0759088 163.825 0.0148778C162.053 0.310895 160.28 0.606911 158.54 0.921315C158.045 1.00291 157.711 1.47614 157.809 1.98087C157.86 2.26666 158.031 2.49229 158.257 2.62099C158.435 2.72211 158.65 2.75861 158.859 2.72826C160.599 2.41385 162.346 2.1248 164.119 1.82878C164.614 1.74719 164.948 1.27396 164.857 0.794571L164.859 0.753071ZM65.1358 184.538C63.5022 183.801 61.9031 183.041 60.3224 182.249C59.8678 182.033 59.3332 182.22 59.1104 182.65C58.9037 183.088 59.0591 183.604 59.463 183.834L59.5115 183.862C61.1014 184.638 62.7328 185.417 64.3826 186.163C64.8371 186.379 65.3647 186.166 65.5806 185.711C65.7965 185.257 65.5743 184.745 65.1289 184.513L65.1358 184.538Z" fill="#872BFF"/>
</svg>
