<svg width="114" height="241" viewBox="0 0 114 241" fill="none" xmlns="http://www.w3.org/2000/svg">
<path d="M90.3163 34.126C89.5863 32.5208 88.8404 30.906 88.069 29.2977C87.8609 28.8487 88.0351 28.3032 88.4842 28.0951C88.9333 27.887 89.4787 28.0613 89.6868 28.5104C90.4742 30.1282 91.236 31.7524 91.9565 33.3736C92.1645 33.8227 91.9648 34.3746 91.4998 34.5731C91.2227 34.7107 90.9007 34.6699 90.6613 34.5269C90.5017 34.4316 90.3867 34.298 90.3003 34.1164L90.3163 34.126ZM87.3216 23.6983C86.5152 22.1124 85.6928 20.5169 84.8449 18.9279C84.6114 18.4853 84.0659 18.311 83.6138 18.5606C83.1711 18.7941 83.0128 19.3491 83.2464 19.7917C84.0783 21.3712 84.9102 22.9507 85.7007 24.5271C85.7807 24.6832 85.8957 24.8168 86.0393 24.9026C86.2946 25.0551 86.6262 25.08 86.9128 24.9264C87.3555 24.6928 87.5456 24.1569 87.3121 23.7142L87.3216 23.6983ZM102.014 64.562C102.222 64.6859 102.477 64.7301 102.741 64.6499C103.219 64.5023 103.499 63.9981 103.351 63.5202C102.828 61.8222 102.289 60.1146 101.735 58.3975C101.587 57.9196 101.064 57.672 100.586 57.8195C100.108 57.9671 99.8604 58.4904 100.008 58.9683C100.572 60.6694 101.095 62.3675 101.602 64.056C101.66 64.2854 101.813 64.4636 102.005 64.578L102.014 64.562ZM12.0667 201.624C11.2827 200.073 10.5017 198.481 9.72391 196.847C9.51582 196.398 8.97986 196.208 8.51484 196.406C8.06577 196.614 7.87556 197.15 8.07412 197.615C8.85838 199.275 9.64577 200.892 10.4298 202.443C10.5098 202.599 10.6343 202.717 10.778 202.803C11.0333 202.955 11.3648 202.98 11.6514 202.827C12.0941 202.593 12.2684 202.048 12.0507 201.615L12.0667 201.624ZM82.2537 14.2406C81.3867 12.6835 80.4943 11.1328 79.5763 9.58853C79.3173 9.15232 78.7688 9.01954 78.3421 9.26264C77.9059 9.52171 77.773 10.0702 78.0161 10.4969C78.9181 12.0316 79.8105 13.5823 80.671 15.114C80.7606 15.254 80.8692 15.3622 80.9968 15.4385C81.2681 15.6005 81.6092 15.6094 81.8958 15.4558C82.3225 15.2127 82.4808 14.6578 82.2377 14.2311L82.2537 14.2406ZM98.6665 54.3997C98.8899 54.5331 99.1705 54.5708 99.4285 54.4651C99.9 54.292 100.138 53.7847 99.981 53.3228C99.3816 51.644 98.7821 49.9652 98.1413 48.2834C97.9587 47.8279 97.4354 47.5803 96.9799 47.7629C96.5085 47.9359 96.2768 48.4687 96.4594 48.9242C97.0843 50.5966 97.6932 52.2594 98.2926 53.9382C98.36 54.1516 98.5069 54.3043 98.6825 54.4092L98.6665 54.3997ZM5.49684 187.069C5.31424 186.613 4.78144 186.382 4.32595 186.564C3.87046 186.747 3.6388 187.28 3.82139 187.735C4.49416 189.436 5.19554 191.089 5.88405 192.691C5.97048 192.873 6.10145 193.016 6.24506 193.102C6.48443 193.245 6.79054 193.276 7.05808 193.154C7.5231 192.956 7.72924 192.43 7.53069 191.964C6.84217 190.362 6.15679 188.719 5.49045 187.043L5.49684 187.069ZM94.4988 43.9424C94.5756 44.1399 94.7066 44.2831 94.8662 44.3784C95.1055 44.5214 95.3957 44.5432 95.6696 44.447C96.1251 44.2644 96.3568 43.7316 96.1742 43.2761C95.5143 41.6261 94.8129 39.973 94.1115 38.32C93.929 37.8645 93.3866 37.6488 92.9216 37.8473C92.4566 38.0459 92.2504 38.5723 92.4489 39.0373C93.1598 40.6744 93.8453 42.318 94.4892 43.9584L94.4988 43.9424ZM1.76989 177.07C1.59682 176.598 1.09903 176.344 0.611622 176.508C0.140174 176.681 -0.113875 177.179 0.0496572 177.666C0.645956 179.386 1.26134 181.075 1.86385 182.712C1.94074 182.909 2.07813 183.078 2.2377 183.173C2.46111 183.307 2.74171 183.345 3.01567 183.248C3.48712 183.075 3.71875 182.543 3.53616 182.087C2.93365 180.45 2.32471 178.787 1.72841 177.067L1.76989 177.07ZM103.841 184.887C103.312 186.606 102.761 188.29 102.187 189.939C102.048 190.354 102.214 190.8 102.581 191.019C102.629 191.048 102.693 191.086 102.741 191.115C103.204 191.283 103.723 191.03 103.891 190.567C104.474 188.902 105.044 187.186 105.583 185.451C105.735 184.979 105.473 184.476 104.985 184.314C104.512 184.162 104 184.44 103.848 184.912L103.841 184.887ZM100.329 194.935C99.6787 196.604 98.9807 198.243 98.2857 199.842C98.0953 200.269 98.2588 200.757 98.6418 200.986C98.6737 201.005 98.7056 201.024 98.7375 201.043C99.197 201.252 99.7289 201.05 99.9225 200.581C100.652 198.961 101.335 197.311 102.004 195.611C102.188 195.158 101.954 194.607 101.492 194.439C101.023 194.245 100.513 194.482 100.319 194.951L100.329 194.935ZM76.7971 4.96218C75.8601 3.44983 74.9072 1.92796 73.9288 0.41251C73.6602 -0.00774672 73.1021 -0.124592 72.6819 0.144004C72.2616 0.4126 72.1447 0.970689 72.4133 1.39095C73.3758 2.89687 74.3383 4.40278 75.2593 5.9056C75.3329 6.03615 75.451 6.12837 75.5627 6.19509C75.834 6.35713 76.2006 6.3596 76.4967 6.19006C76.917 5.92147 77.0498 5.37292 76.7907 4.93671L76.7971 4.96218ZM106.645 174.61C106.231 176.355 105.785 178.08 105.333 179.78C105.228 180.173 105.414 180.587 105.749 180.787C105.813 180.825 105.893 180.873 105.976 180.879C106.457 181.015 106.954 180.727 107.09 180.245C107.552 178.529 107.998 176.804 108.406 175.034C108.526 174.543 108.229 174.062 107.738 173.942C107.246 173.822 106.766 174.119 106.645 174.61ZM96.0254 204.641C95.222 206.239 94.3868 207.819 93.5482 209.332C93.3003 209.746 93.4512 210.291 93.8821 210.549L93.898 210.558C94.3289 210.816 94.8832 210.649 95.1246 210.208C95.9823 208.664 96.8271 207.068 97.6495 205.438C97.875 204.988 97.6827 204.44 97.2487 204.224C96.7988 203.998 96.2604 204.175 96.0349 204.625L96.0254 204.641ZM107.777 169.418C107.698 169.804 107.877 170.193 108.196 170.383C108.276 170.431 108.372 170.488 108.48 170.488C108.965 170.583 109.455 170.269 109.55 169.785C109.913 168.053 110.238 166.277 110.547 164.491C110.625 163.997 110.302 163.522 109.808 163.444C109.314 163.365 108.84 163.688 108.761 164.182C108.461 165.952 108.114 167.693 107.777 169.418ZM111.586 127.049C111.586 127.374 111.765 127.654 112.021 127.807C112.164 127.892 112.327 127.946 112.502 127.943C113.003 127.939 113.4 127.527 113.396 127.026C113.37 125.257 113.322 123.453 113.249 121.655C113.228 121.145 112.807 120.763 112.313 120.793C111.803 120.813 111.421 121.235 111.451 121.729C111.524 123.526 111.576 125.289 111.602 127.058L111.586 127.049ZM110.83 148.357C110.796 148.705 110.988 149.036 111.275 149.208C111.387 149.274 111.518 149.309 111.658 149.328C112.155 149.365 112.591 148.998 112.645 148.51C112.794 146.737 112.928 144.955 113.055 143.147C113.092 142.65 112.699 142.22 112.202 142.183C111.705 142.146 111.275 142.539 111.238 143.036C111.12 144.828 110.996 146.594 110.84 148.341L110.83 148.357ZM38.6139 233.915C37.1618 233.048 35.7285 232.04 34.311 230.933C33.9247 230.638 33.3447 230.702 33.049 231.089C32.7437 231.491 32.8181 232.055 33.2044 232.351C34.6858 233.495 36.1829 234.541 37.6989 235.447C38.1297 235.704 38.6905 235.563 38.9383 235.148C39.1957 234.717 39.0703 234.166 38.6394 233.909L38.6139 233.915ZM17.2555 210.916C16.3568 209.448 15.4549 207.913 14.5815 206.331C14.3384 205.904 13.7834 205.746 13.3567 205.989C12.9301 206.232 12.7717 206.787 13.0148 207.214C13.9106 208.831 14.8285 210.375 15.7336 211.869C15.8072 211.999 15.9253 212.091 16.037 212.158C16.3083 212.32 16.6749 212.323 16.971 212.153C17.3912 211.885 17.5241 211.336 17.265 210.9L17.2555 210.916ZM58.4701 238.588C56.7459 238.792 55.0247 238.846 53.2903 238.741C52.7929 238.704 52.3634 239.097 52.3261 239.594C52.3077 239.951 52.4932 240.257 52.7644 240.419C52.8921 240.495 53.0229 240.53 53.1632 240.549C54.9804 240.66 56.8515 240.609 58.6681 240.395C59.1557 240.339 59.5151 239.883 59.4599 239.395C59.3888 238.898 58.9482 238.548 58.4606 238.603L58.4701 238.588ZM110.369 159.968C110.863 160.047 111.331 159.698 111.394 159.195C111.642 157.438 111.884 155.655 112.085 153.87C112.138 153.382 111.78 152.93 111.292 152.877C110.788 152.814 110.352 153.181 110.299 153.669C110.098 155.455 109.876 157.205 109.611 158.953C109.558 159.332 109.74 159.679 110.043 159.86C110.139 159.917 110.26 159.968 110.385 159.978L110.369 159.968ZM113.29 137.788C113.356 136.009 113.391 134.211 113.41 132.404C113.422 131.913 113.019 131.499 112.519 131.503C112.018 131.508 111.614 131.894 111.618 132.395C111.609 134.186 111.568 135.959 111.485 137.728C111.477 138.069 111.646 138.365 111.933 138.537C112.061 138.613 112.208 138.657 112.358 138.66C112.864 138.682 113.278 138.279 113.29 137.788ZM78.4342 230.031C78.1051 229.639 77.5503 229.589 77.1589 229.918C75.7808 231.065 74.3771 232.111 72.9476 233.054C72.5274 233.322 72.4105 233.881 72.6951 234.31C72.7782 234.425 72.8708 234.524 72.9825 234.59C73.2697 234.762 73.6363 234.764 73.942 234.579C75.432 233.607 76.8898 232.507 78.3124 231.322C78.6943 231.009 78.7538 230.438 78.4246 230.047L78.4342 230.031ZM92.0839 213.632C91.6306 213.339 91.1113 213.484 90.838 213.905C89.8655 215.424 88.8802 216.893 87.8597 218.275C87.5704 218.687 87.6543 219.235 88.0566 219.54C88.0725 219.55 88.1044 219.569 88.1204 219.578C88.5193 219.816 89.0356 219.713 89.3058 219.333C90.3454 217.919 91.3593 216.403 92.3413 214.868C92.5987 214.437 92.4892 213.895 92.0679 213.622L92.0839 213.632ZM48.1979 237.951C46.5522 237.553 44.8935 236.995 43.2696 236.306C42.8006 236.113 42.2846 236.324 42.0751 236.784C41.8942 237.195 42.0578 237.683 42.4408 237.911C42.4727 237.93 42.5045 237.949 42.5524 237.978C44.2657 238.698 46.0297 239.297 47.7647 239.727C48.2558 239.848 48.7366 239.55 48.8568 239.059C48.977 238.568 48.6795 238.087 48.1884 237.967L48.1979 237.951ZM85.888 222.337C85.5112 222.025 84.9248 222.064 84.6131 222.441C83.4682 223.814 82.2531 225.124 81.0536 226.334C80.6941 226.682 80.7016 227.25 81.0498 227.609C81.1136 227.647 81.1679 227.701 81.2317 227.74C81.5828 227.949 82.0449 227.9 82.3344 227.597C83.5784 226.348 84.7966 224.997 85.9861 223.586C86.3073 223.193 86.2583 222.623 85.8816 222.311L85.888 222.337ZM69.6318 236.031C69.4237 235.582 68.8719 235.383 68.4292 235.616C66.8464 236.381 65.2059 237.025 63.5939 237.513C63.116 237.66 62.8365 238.165 62.9841 238.642C63.0514 238.856 63.1953 239.05 63.3868 239.164C63.5942 239.288 63.8493 239.332 64.1137 239.252C65.8277 238.739 67.5542 238.06 69.223 237.259C69.672 237.051 69.8718 236.499 69.6382 236.057L69.6318 236.031ZM108.684 84.3513C108.323 82.5987 107.937 80.8526 107.536 79.097C107.413 78.6127 106.944 78.3107 106.444 78.4233C105.96 78.5454 105.658 79.0146 105.77 79.5148C106.182 81.2545 106.552 82.9911 106.906 84.7182C106.97 84.9731 107.12 85.1928 107.328 85.3167C107.519 85.4311 107.749 85.4816 107.978 85.4238C108.469 85.3272 108.78 84.842 108.684 84.3513ZM23.3134 219.622C22.2651 218.26 21.2135 216.831 20.1906 215.354C19.9124 214.949 19.3448 214.849 18.9245 215.117C18.5202 215.395 18.4194 215.963 18.6975 216.367C19.7429 217.879 20.8168 219.344 21.8874 220.741C21.9641 220.83 22.0503 220.903 22.1461 220.96C22.4493 221.141 22.8668 221.131 23.1597 220.895C23.5575 220.591 23.617 220.02 23.3134 219.622ZM104.926 74.8751C105.117 74.9895 105.373 75.0336 105.602 74.9758C106.086 74.8537 106.382 74.359 106.26 73.8747C105.823 72.1414 105.36 70.4146 104.882 68.6782C104.76 68.1939 104.256 67.9144 103.762 68.0524C103.278 68.1745 102.998 68.6787 103.136 69.1725C103.624 70.8929 104.07 72.6103 104.517 74.3276C104.575 74.557 104.735 74.7607 104.926 74.8751ZM112.603 110.92C112.557 110.416 112.126 110.051 111.622 110.096C111.119 110.142 110.753 110.573 110.799 111.076C110.949 112.855 111.099 114.633 111.201 116.383C111.211 116.693 111.4 116.957 111.639 117.1C111.799 117.195 111.971 117.233 112.172 117.223C112.666 117.193 113.057 116.756 113.012 116.252C112.903 114.477 112.762 112.682 112.596 110.894L112.603 110.92ZM110.704 106.451C110.863 106.547 111.067 106.604 111.262 106.568C111.749 106.513 112.125 106.066 112.054 105.569C111.852 103.803 111.635 102.028 111.386 100.234C111.315 99.7366 110.865 99.4028 110.378 99.4579C109.88 99.5291 109.547 99.9792 109.602 100.467C109.844 102.236 110.061 104.011 110.256 105.751C110.292 106.054 110.458 106.283 110.697 106.426L110.704 106.451ZM30.3674 227.495C29.1378 226.328 27.908 225.052 26.7004 223.702C26.3618 223.327 25.7974 223.293 25.4219 223.632C25.0465 223.97 25.0125 224.535 25.3511 224.91C26.5811 226.294 27.8588 227.599 29.1268 228.811C29.1906 228.849 29.2289 228.894 29.2927 228.932C29.6438 229.141 30.1059 229.093 30.4049 228.773C30.7485 228.416 30.7251 227.839 30.3674 227.495ZM109.714 89.6218C109.618 89.1311 109.142 88.8037 108.651 88.9003C108.161 88.9969 107.843 89.4566 107.93 89.9632C108.249 91.7127 108.558 93.4781 108.836 95.2244C108.881 95.5113 109.041 95.715 109.264 95.8484C109.44 95.9533 109.653 95.9943 109.864 95.9684C110.361 95.8972 110.688 95.4216 110.617 94.9245C110.349 93.1622 110.04 91.3968 109.714 89.6218Z" fill="#F411CF"/>
</svg>
