<svg width="32" height="36" viewBox="0 0 32 36" fill="none" xmlns="http://www.w3.org/2000/svg">
<path d="M8.07301 7.33295C5.18067 3.54838 0.961569 -0.552375 0.140332 0.0612861C-0.67448 0.700436 2.20138 5.81753 5.09372 9.6021C5.359 9.95542 5.61783 10.2832 5.87668 10.6111C5.75362 11.2521 5.50131 12.6169 5.18909 14.3357C5.17314 14.3262 5.1922 14.2943 5.16982 14.2593L4.38681 13.2503C4.28775 13.1262 4.09649 13.1202 3.94687 13.2256L2.95695 13.9767C2.80733 14.0822 2.77582 14.2799 2.87489 14.404L3.65789 15.413C3.65789 15.413 3.76957 15.4797 3.8334 15.5179L4.72833 16.702C4.46024 18.1657 4.1573 19.7601 3.87347 21.3227L3.10649 20.3233C3.00742 20.1991 2.81611 20.1931 2.66649 20.2986L1.67657 21.0497C1.52696 21.1551 1.4955 21.3529 1.59456 21.477L2.37751 22.486C2.37751 22.486 2.48924 22.5527 2.55307 22.5908L3.42559 23.7399C2.70026 27.7451 2.10752 31.0935 2.13322 31.1954C2.2039 31.4758 3.41175 32.9334 3.41175 32.9334C3.67702 33.2867 3.93253 33.5476 3.97708 33.5093C3.99615 33.4774 3.7435 33.0666 3.49419 32.7228L6.34249 25.4173C6.57253 25.6846 6.80235 25.8436 6.85644 25.7893C6.94555 25.7126 6.79505 25.3845 6.52977 25.0312L6.49788 25.0122L7.06565 23.5542C7.28927 23.7961 7.49359 23.9614 7.57316 23.9007C7.66227 23.824 7.51182 23.496 7.24655 23.1427L7.75399 21.8219L8.34539 21.0493C8.59782 21.3517 8.85645 21.5711 8.94555 21.4944C9.03466 21.4178 8.88417 21.0897 8.61889 20.7364L8.60297 20.7269L9.77933 19.1562C10.0318 19.4585 10.284 19.6525 10.3636 19.5918C10.4527 19.5151 10.3022 19.187 10.0369 18.8337L10.021 18.8242L11.0956 17.3876C13.0738 19.9116 13.8758 20.8887 15.3108 22.7634C16.7618 24.6477 18.292 26.3629 19.6623 27.766C19.2745 29.9377 18.4574 34.2778 18.4574 34.2778L19.1896 35.408L22.9293 30.7784C23.2678 31.0455 23.5614 31.2426 23.7848 31.3761C24.4461 32.1175 24.8805 32.5502 24.9506 32.5054C25.0301 32.4447 24.7358 31.9225 24.2115 31.133C24.1377 30.894 23.9968 30.55 23.7792 30.1169L29.2637 27.6771L28.3628 26.6843C28.3628 26.6843 23.6793 26.3332 21.5591 26.1493C20.5964 24.535 19.4261 22.6884 18.1695 20.7687C16.3702 18.4164 15.6063 17.3755 13.9858 15.1951L15.6358 14.5352C15.9011 14.8885 16.1916 15.127 16.2807 15.0503C16.3602 14.9896 16.2322 14.6966 15.9988 14.3623L17.8208 13.6319L17.8367 13.6415C18.102 13.9948 18.3926 14.2333 18.4817 14.1566C18.5613 14.0959 18.4427 13.7869 18.1998 13.4686L19.1108 13.1034L20.5227 12.9508C20.7879 13.3042 21.0785 13.5427 21.1676 13.466C21.2472 13.4053 21.1479 13.1728 20.9688 12.8926L22.5146 12.7334L22.5465 12.7524C22.8022 13.1217 23.1023 13.3443 23.1819 13.2835C23.2615 13.2228 23.1558 12.9648 22.9608 12.6751L30.7596 11.8342C31.0184 12.162 31.357 12.5375 31.392 12.5151C31.4366 12.4768 31.2511 12.1711 30.9859 11.8178C30.9859 11.8178 29.9181 10.2706 29.6628 10.1181C29.567 10.0609 26.1715 9.76477 22.1288 9.42842L21.2563 8.27935C21.2563 8.27935 21.2591 8.12951 21.2208 8.08496L20.4378 7.07596C20.3387 6.95184 20.1475 6.94584 19.9979 7.05133L19.0079 7.8024C18.8583 7.90789 18.8269 8.10561 18.9259 8.22974L19.6929 9.22916C18.102 9.10159 16.4951 8.96449 15.003 8.85266L14.1081 7.66858C14.1081 7.66858 14.111 7.51874 14.0726 7.47419L13.2896 6.46519C13.1906 6.34106 12.9993 6.33507 12.8497 6.44056L11.8598 7.19162C11.7102 7.29711 11.6787 7.49483 11.7778 7.61896L12.5607 8.62793C12.5607 8.62793 12.6086 8.65653 12.6246 8.66606C10.9093 8.52917 9.54153 8.42666 8.87838 8.37696C8.61953 8.04912 8.37019 7.70532 8.10491 7.352L8.07301 7.33295Z" fill="#F411CF"/>
</svg>
